<svg width="327" height="90" viewBox="0 0 327 90" fill="none" xmlns="http://www.w3.org/2000/svg">
<path d="M117.523 66L125.837 24.4303H133.795L151.67 54.5386L148.523 54.3605L154.461 24.4303H163.963L155.649 66H147.751L129.816 35.8916L133.023 36.0698L127.025 66H117.523ZM177.836 66.4751C175.382 66.4751 173.105 65.9208 171.007 64.8123C168.909 63.6642 167.226 62.0212 165.959 59.8833C164.692 57.7454 164.059 55.1721 164.059 52.1632C164.059 49.4711 164.494 46.9967 165.365 44.74C166.276 42.4834 167.543 40.5237 169.166 38.8609C170.789 37.1981 172.67 35.9114 174.808 35.0008C176.945 34.0507 179.242 33.5756 181.696 33.5756C184.349 33.5756 186.625 34.0705 188.526 35.0602C190.426 36.05 191.831 37.594 192.742 39.6923C193.692 41.751 194.029 44.4233 193.752 47.7093C193.554 51.4704 192.782 54.7762 191.435 57.6267C190.089 60.4376 188.268 62.615 185.972 64.1591C183.715 65.7031 181.003 66.4751 177.836 66.4751ZM180.687 58.8144C182.508 58.8144 184.111 58.3789 185.497 57.5079C186.922 56.5973 188.031 55.37 188.823 53.826C189.654 52.2424 190.07 50.4014 190.07 48.3032C190.07 46.1257 189.416 44.4035 188.11 43.1366C186.843 41.8698 185.061 41.2363 182.765 41.2363C180.984 41.2363 179.38 41.6916 177.955 42.6022C176.53 43.4732 175.401 44.7005 174.57 46.2841C173.778 47.8281 173.382 49.6492 173.382 51.7475C173.382 53.925 174.016 55.6472 175.283 56.914C176.589 58.1809 178.39 58.8144 180.687 58.8144ZM187.041 66L188.288 59.6458L190.367 50.1441L191.614 40.6425L192.92 34.0507H202.184L195.83 66H187.041ZM215.928 66.4751C213.632 66.4751 211.672 66.0198 210.049 65.1092C208.425 64.1591 207.257 62.813 206.545 61.071C205.872 59.2895 205.773 57.1912 206.248 54.7762L211.771 26.9838H221.035L215.512 54.7168C215.275 56.0629 215.413 57.1318 215.928 57.9236C216.442 58.7154 217.393 59.1113 218.778 59.1113C219.412 59.1113 220.045 59.0123 220.679 58.8144C221.352 58.6164 221.965 58.3393 222.52 57.983L223.885 64.5748C222.737 65.2874 221.47 65.7823 220.085 66.0594C218.699 66.3365 217.313 66.4751 215.928 66.4751ZM203.873 41.8895L205.298 34.7633H227.449L226.023 41.8895H203.873ZM240.903 66.4751C238.291 66.4751 236.034 65.9208 234.134 64.8123C232.233 63.6642 230.887 62.0014 230.095 59.8239C229.304 57.6465 229.224 54.9543 229.858 51.7475L233.362 34.0507H242.626L239.241 51.1537C238.766 53.4895 238.944 55.2908 239.775 56.5577C240.646 57.8246 242.17 58.4581 244.348 58.4581C246.644 58.4581 248.564 57.785 250.108 56.439C251.692 55.0929 252.741 53.0342 253.256 50.2629L256.522 34.0507H265.786L259.432 66H250.643L252.424 56.9734L253.731 59.7052C252.226 62.041 250.346 63.7632 248.089 64.8717C245.832 65.9406 243.437 66.4751 240.903 66.4751ZM266.53 66L272.884 34.0507H281.673L279.832 43.1366L279.001 40.5237C280.426 37.9503 282.287 36.149 284.583 35.1196C286.879 34.0903 289.631 33.5756 292.837 33.5756L291.175 42.1271C290.779 42.0875 290.403 42.0677 290.046 42.0677C289.73 42.0281 289.393 42.0083 289.037 42.0083C286.305 42.0083 284.068 42.6814 282.326 44.0274C280.624 45.3735 279.476 47.551 278.882 50.5598L275.794 66H266.53ZM307.14 66.4751C303.815 66.4751 300.925 65.8812 298.47 64.6935C296.055 63.5058 294.175 61.843 292.829 59.7052C291.482 57.5673 290.809 55.0533 290.809 52.1632C290.809 48.6001 291.601 45.4329 293.185 42.6616C294.808 39.8507 297.025 37.6336 299.836 36.0104C302.686 34.3872 305.953 33.5756 309.635 33.5756C312.762 33.5756 315.454 34.1695 317.711 35.3572C319.968 36.5053 321.71 38.1285 322.937 40.2268C324.204 42.2854 324.837 44.7598 324.837 47.6499C324.837 48.4813 324.778 49.3127 324.659 50.1441C324.58 50.9755 324.461 51.7673 324.303 52.5195H297.876L298.826 47.1155H319.968L316.167 48.7782C316.484 46.9967 316.385 45.5121 315.87 44.3243C315.355 43.097 314.524 42.1667 313.376 41.5332C312.228 40.8602 310.842 40.5237 309.219 40.5237C307.2 40.5237 305.478 41.0186 304.052 42.0083C302.667 42.9585 301.618 44.2848 300.905 45.9871C300.192 47.6895 299.836 49.6096 299.836 51.7475C299.836 54.2021 300.509 56.0431 301.855 57.2704C303.241 58.4581 305.319 59.0519 308.091 59.0519C309.714 59.0519 311.278 58.7946 312.782 58.2799C314.286 57.7652 315.573 57.0328 316.642 56.0826L320.502 62.1993C318.641 63.6642 316.543 64.7529 314.207 65.4655C311.911 66.1386 309.555 66.4751 307.14 66.4751Z" fill="#3685FB"/>
<rect x="39.427" width="34.7607" height="78.8542" rx="17.3803" transform="rotate(30 39.427 0)" stroke="#3685FB" stroke-width="7.2"/>
<rect x="76.9529" y="4.3299" width="34.7607" height="78.8542" rx="17.3803" transform="rotate(30 76.9529 4.3299)" stroke="#3685FB" stroke-width="7.2"/>
</svg>
